<?xml version="1.0" encoding="UTF-8"?>
<svg version="1.1" xmlns="http://www.w3.org/2000/svg" width="653" height="717">
<path d="M0 0 C130.35 0 260.7 0 395 0 C395 18.48 395 36.96 395 56 C383.66140625 56.03867188 383.66140625 56.03867188 372.09375 56.078125 C367.29944543 56.10329716 362.5052037 56.12963302 357.7109375 56.16015625 C350.1044899 56.20847284 342.49818782 56.2525246 334.89160156 56.27099609 C328.7576543 56.28616135 322.62408816 56.32060556 316.49031067 56.36830902 C314.15244361 56.38312398 311.81452213 56.39104108 309.47660828 56.39188385 C306.19688482 56.39425479 302.9182135 56.42134667 299.63867188 56.45410156 C298.6762558 56.4490712 297.71383972 56.44404083 296.72225952 56.43885803 C289.87401049 56.54438317 284.19824677 57.90360823 279.16015625 62.78125 C278.79792969 63.3484375 278.43570312 63.915625 278.0625 64.5 C277.68222656 65.0671875 277.30195312 65.634375 276.91015625 66.21875 C274.79366063 70.36090451 274.61681783 74.40181401 275 79 C276.95502508 84.87624682 279.91781184 88.54411205 285 92 C290.38944265 94.34651199 295.45560264 94.30573434 301.22802734 94.31884766 C302.75089859 94.33391609 302.75089859 94.33391609 304.30453491 94.34928894 C307.64833021 94.38009154 310.99204553 94.39714815 314.3359375 94.4140625 C316.65907477 94.43277647 318.98220527 94.45235006 321.30532837 94.4727478 C327.41099041 94.52405062 333.51667447 94.5636864 339.62243652 94.60089111 C346.95304367 94.64798766 354.28354164 94.70957767 361.61405945 94.76873779 C372.74266219 94.85692748 383.87124424 94.92670837 395 95 C395 113.48 395 131.96 395 151 C355.07 151 315.14 151 274 151 C274 324.91 274 498.82 274 678 C255.19 678 236.38 678 217 678 C216.99589111 670.92304687 216.99178223 663.84609375 216.98754883 656.5546875 C216.97088502 633.90163649 216.92971109 611.24867148 216.87314438 588.59568912 C216.86437781 585.07600023 216.85582797 581.55631084 216.84741211 578.03662109 C216.84573305 577.33592511 216.84405398 576.63522912 216.84232404 575.91329992 C216.81566659 564.5731763 216.80655986 553.23310323 216.80395857 541.89295149 C216.80089728 530.25371183 216.77855868 518.61462719 216.73947543 506.97545242 C216.71813702 500.43919189 216.70554936 493.90317801 216.71384621 487.36688232 C216.72138068 481.21412456 216.70558701 475.0618668 216.67193985 468.90920067 C216.66369947 466.65177064 216.66396493 464.39429096 216.67340279 462.13686562 C216.68502323 459.05183664 216.66590715 455.96844666 216.63923645 452.88354492 C216.64990971 451.9924748 216.66058297 451.10140469 216.67157966 450.18333244 C216.57181664 443.98814598 214.98276576 439.78586793 211 435 C205.8990237 430.83593772 201.47436722 430.30939485 194.94140625 430.5546875 C190.48724573 431.22902256 187.14077181 432.75215642 184 436 C180.04524761 441.71942827 179.42141128 445.89672003 179.48101807 452.76329041 C179.47351681 453.72890618 179.46601556 454.69452196 179.458287 455.68939883 C179.43803491 458.91546706 179.44610788 462.14083081 179.45410156 465.36694336 C179.44536524 467.68322443 179.43487925 469.99949946 179.42277527 472.31576538 C179.39490223 478.59825633 179.39151089 484.88055048 179.39249516 491.16309428 C179.38936721 497.73080913 179.36375141 504.29843519 179.34051514 510.86610413 C179.30389101 521.88770132 179.28245036 532.9092577 179.27099609 543.9309082 C179.25916224 555.2812027 179.23895519 566.63143158 179.20751953 577.98168945 C179.20558343 578.68179435 179.20364733 579.38189925 179.20165256 580.10321944 C179.19188776 583.61558214 179.18195869 587.12794435 179.17194796 590.64030635 C179.08916452 619.76017995 179.0384269 648.88003005 179 678 C160.19 678 141.38 678 122 678 C122 595.83 122 513.66 122 429 C120.68 429.33 119.36 429.66 118 430 C116.23444815 430.15430847 114.46535358 430.27027382 112.6953125 430.359375 C71.51688523 432.74827507 36.93173553 446.45474813 7 475 C6.15695313 475.77859375 5.31390625 476.5571875 4.4453125 477.359375 C-6.59776867 487.87323503 -15.57253091 500.73088311 -23 514 C-23.44843262 514.79728516 -23.89686523 515.59457031 -24.35888672 516.41601562 C-52.16479734 566.39881308 -59.90931192 621.55142177 -62 678 C-80.81 678 -99.62 678 -119 678 C-118.99887207 670.92828369 -118.99774414 663.85656738 -118.99658203 656.57055664 C-118.99719021 633.92923693 -119.02725191 611.28801614 -119.07579029 588.64675445 C-119.0833061 585.12835433 -119.09056163 581.60995372 -119.09765625 578.09155273 C-119.099073 577.39111906 -119.10048975 576.69068538 -119.10194944 575.96902644 C-119.12425213 564.6360273 -119.12548207 553.30311925 -119.11888863 541.97010428 C-119.11259073 530.33649634 -119.12946736 518.70309229 -119.16643608 507.06954092 C-119.18646275 500.53711647 -119.19600042 494.00505702 -119.18042374 487.47261238 C-119.16608951 481.32224868 -119.17982421 475.17258229 -119.21495247 469.02230835 C-119.22291164 466.76690857 -119.220675 464.5114458 -119.20739174 462.25607109 C-119.19076147 459.17115746 -119.21113829 456.08856974 -119.24050903 453.00379944 C-119.22012988 451.67156352 -119.22012988 451.67156352 -119.19933903 450.31241375 C-119.32432716 443.53620722 -121.63628113 439.14561363 -126 434 C-130.53156017 430.43948844 -135.43425657 430.42732278 -141.0234375 430.59375 C-145.51594397 431.20690049 -148.91776021 432.63755659 -152 436 C-155.80420796 441.89221492 -156.57943512 446.93450798 -156.51898193 453.84558105 C-156.53023381 455.28916103 -156.53023381 455.28916103 -156.541713 456.76190424 C-156.56193429 459.9710488 -156.5538982 463.17948307 -156.54589844 466.38867188 C-156.55463644 468.69524838 -156.56512301 471.00181882 -156.57722473 473.30838013 C-156.60507723 479.55982141 -156.60848956 485.81106481 -156.60750484 492.06255913 C-156.61063455 498.59957177 -156.63625403 505.13649537 -156.65948486 511.67346191 C-156.69609735 522.64200428 -156.71754647 533.61050566 -156.72900391 544.57910156 C-156.7408403 555.87405767 -156.76105223 567.16894787 -156.79248047 578.46386719 C-156.79441657 579.16072236 -156.79635267 579.85757754 -156.79834744 580.57554954 C-156.80811234 584.07165754 -156.81804139 587.56776504 -156.82805204 591.06387234 C-156.91081662 620.04255946 -156.9615666 649.02121697 -157 678 C-175.81 678 -194.62 678 -214 678 C-214 535.11 -214 392.22 -214 245 C-36.3125 244.75 -36.3125 244.75 19.80737305 244.70214844 C36.3979933 244.66893149 36.3979933 244.66893149 52.98860168 244.63043213 C60.38222075 244.61341661 67.77575136 244.60724008 75.16938782 244.60845947 C83.70048827 244.60982896 92.23143606 244.59736239 100.762488 244.56796111 C105.12460784 244.55335903 109.48649038 244.54486577 113.84863031 244.55417585 C117.79960448 244.5624893 121.75009386 244.55223071 125.7009964 244.52765846 C127.12309141 244.52200517 128.54523278 244.52295325 129.96731341 244.5314889 C144.08313845 244.60882819 156.28186374 241.8710299 166.9296875 232.2578125 C174.77552468 224.14259035 178.43958146 213.03987403 178.2734375 201.875 C177.26076872 191.22751106 172.92125003 181.49406566 165.05078125 174.19140625 C153.53644829 165.12019305 142.29114246 163.70516453 127.94311523 163.68115234 C126.52026588 163.67172653 125.09742198 163.66144527 123.67458439 163.6503849 C119.88775521 163.62328252 116.10096447 163.60778352 112.31406403 163.59480286 C108.75168314 163.58080055 105.18940524 163.55618053 101.6270752 163.5324707 C91.23060899 163.46939067 80.83404578 163.42321308 70.4375 163.375 C47.193125 163.25125 23.94875 163.1275 0 163 C0 109.21 0 55.42 0 0 Z " fill="#000000" transform="translate(241,23)"/>
</svg>
