<?xml version="1.0" encoding="UTF-8"?>
<svg version="1.1" xmlns="http://www.w3.org/2000/svg" width="1042" height="253">
<path d="M0 0 C17.0891447 15.33599439 22.00823946 35.02599808 24.22485352 57.19213867 C24.22485352 65.11213867 24.22485352 73.03213867 24.22485352 81.19213867 C-21.31514648 81.19213867 -66.85514648 81.19213867 -113.77514648 81.19213867 C-111.0199786 109.86965423 -111.0199786 109.86965423 -94.90795898 131.69213867 C-80.50553109 141.82131873 -59.87844153 141.56289962 -43.24389648 138.94995117 C-33.3641432 136.7915366 -24.88028521 132.98915069 -19.08764648 124.50463867 C-15.14819424 117.7911027 -13.86705648 110.83550865 -12.77514648 103.19213867 C-1.22514648 103.19213867 10.32485352 103.19213867 22.22485352 103.19213867 C20.44494123 122.77117377 14.47505076 138.34902441 0.01000977 151.94213867 C-9.21939694 159.39815307 -19.16865212 163.74484028 -30.77514648 166.19213867 C-31.59893799 166.36801514 -32.42272949 166.5438916 -33.27148438 166.72509766 C-41.41220709 168.28845564 -49.44292786 168.53190698 -57.70019531 168.5078125 C-59.94247823 168.50466696 -62.18341737 168.52815294 -64.42553711 168.5534668 C-87.95072033 168.65683598 -110.98757719 163.18114661 -128.52514648 146.57104492 C-143.19279258 131.06306493 -148.85763457 108.60468085 -148.97827148 87.69604492 C-148.98397156 86.90423325 -148.98967163 86.11242157 -148.99554443 85.2966156 C-149.00493519 83.62679351 -149.01150464 81.95695338 -149.01538086 80.28710938 C-149.0250016 77.7922114 -149.0560461 75.29816924 -149.08764648 72.8034668 C-149.25789761 47.08503535 -143.2750633 21.09364558 -124.77514648 2.19213867 C-93.5144209 -24.99508095 -31.96248742 -27.13551984 0 0 Z M-101.77514648 25.19213867 C-106.17806566 31.4442839 -110.74293404 38.28854027 -109.77514648 46.19213867 C-107.43732678 50.60802033 -105.29499248 53.09205752 -100.77514648 55.19213867 C-97.81892062 55.46267987 -95.08105982 55.57226833 -92.12939453 55.53271484 C-91.27035019 55.53315292 -90.41130585 55.533591 -89.52622986 55.53404236 C-86.69620778 55.53195788 -83.8667834 55.50864295 -81.03686523 55.48510742 C-79.07103296 55.47951026 -77.10519648 55.47524073 -75.13935852 55.47224426 C-69.97224315 55.46080502 -64.80538187 55.43134564 -59.6383667 55.39813232 C-54.36303138 55.36741167 -49.0876549 55.35373465 -43.81225586 55.33862305 C-33.46644127 55.30647516 -23.12081503 55.25528983 -12.77514648 55.19213867 C-12.92405278 53.42832471 -13.07620707 51.66478476 -13.22973633 49.90136719 C-13.31411957 48.91926773 -13.39850281 47.93716827 -13.48544312 46.92530823 C-14.60366219 36.37561277 -19.49704441 27.14464354 -27.18139648 19.93432617 C-37.67804348 11.56788107 -48.44692723 9.87178433 -61.46264648 9.75463867 C-62.41236328 9.74432617 -63.36208008 9.73401367 -64.34057617 9.72338867 C-78.25285714 9.89675043 -92.30074187 14.64017302 -101.77514648 25.19213867 Z " fill="#000000" transform="translate(719.775146484375,73.807861328125)"/>
<path d="M0 0 C16.5 0 33 0 50 0 C54.49977028 10.12448313 54.49977028 10.12448313 56.31152344 15.27441406 C56.72066483 16.43154907 57.12980621 17.58868408 57.55134583 18.78088379 C58.19882027 20.62958069 58.19882027 20.62958069 58.859375 22.515625 C59.32512153 23.83682811 59.79120969 25.15791084 60.25761414 26.47888184 C61.24591685 29.28007453 62.23200768 32.08203148 63.21627808 34.88464355 C64.76689021 39.29972048 66.32254042 43.71301127 67.87915039 48.12597656 C69.44873911 52.57631377 71.01813488 57.02671774 72.58583069 61.47772217 C76.84734021 73.57646402 81.13475061 85.66586131 85.4375 97.75 C86.07514957 99.54173537 86.71276362 101.33348337 87.3503418 103.12524414 C88.29188791 105.77112151 89.23349187 108.41697821 90.17530823 111.0627594 C92.45492559 117.46686965 94.73188113 123.87192272 97.0078125 130.27734375 C97.68497259 132.18286297 98.3621373 134.08838055 99.03930664 135.99389648 C100.04413829 138.8214713 101.0488565 141.64908613 102.05319214 144.47683716 C105.79859048 155.02188865 109.55708278 165.56203851 113.33984375 176.09375 C114.04489356 178.05898161 114.74989116 180.02423196 115.45483398 181.98950195 C116.7933536 185.72105675 118.13592577 189.45111996 119.48071289 193.18041992 C120.08105482 194.85329442 120.68124272 196.5262242 121.28125 198.19921875 C121.55851425 198.96459961 121.8357785 199.72998047 122.1214447 200.51855469 C124 205.7725756 124 205.7725756 124 208 C110.8 208 97.6 208 84 208 C81.71867668 200.91669477 79.43910269 193.83287721 77.1640625 186.74755859 C76.38906369 184.3357649 75.61302469 181.92430521 74.8359375 179.51318359 C73.72124066 176.0539267 72.61025059 172.59349859 71.5 169.1328125 C71.15001953 168.04944611 70.80003906 166.96607971 70.43945312 165.84988403 C70.11912109 164.8489975 69.79878906 163.84811096 69.46875 162.81689453 C69.18451172 161.93309113 68.90027344 161.04928772 68.60742188 160.13870239 C68 158 68 158 68 156 C61.38343773 156.06753842 54.76744159 156.15754817 48.15136719 156.26245117 C45.90534212 156.29549992 43.65923799 156.32359277 41.41308594 156.34643555 C38.16567607 156.38035294 34.91897779 156.43268445 31.671875 156.48828125 C30.18986603 156.49786613 30.18986603 156.49786613 28.67791748 156.50764465 C11.25263116 156.86690158 -4.60648043 163.72105842 -17 176 C-25.59646176 185.80345327 -29.91035108 195.73105323 -34 208 C-47.2 208 -60.4 208 -74 208 C-67.93943974 189.51015513 -61.51801463 171.20030629 -54.87037659 152.91661072 C-50.83620589 141.81142175 -46.85883833 130.685818 -42.875 119.5625 C-42.06440808 117.30011719 -41.25377959 115.03774748 -40.44311523 112.77539062 C-38.79310764 108.17047699 -37.14330515 103.56548996 -35.49365234 98.96044922 C-31.39330953 87.51468732 -27.29035349 76.0698621 -23.1875 64.625 C-22.79442657 63.52847107 -22.40135315 62.43194214 -21.99636841 61.30218506 C-14.6705047 40.86587363 -7.33673467 20.43241161 0 0 Z M24 28 C20.91539433 37.19713073 17.84834026 46.39989435 14.79570007 55.60768127 C12.84771587 61.47447507 10.8740518 67.33211479 8.88755798 73.18597412 C7.48487322 77.33065296 6.09743336 81.48034373 4.712677 85.63104248 C4.03210714 87.66009003 3.34520376 89.68702478 2.65182495 91.71173096 C1.67164046 94.57722165 0.71443033 97.44949648 -0.23828125 100.32421875 C-0.5334967 101.1698085 -0.82871216 102.01539825 -1.13287354 102.88661194 C-2.93417655 108.42187033 -3.57026198 113.30571579 -2 119 C0.1693104 122.78921503 2.93084461 125.38589208 7 127 C9.46320204 127.28737517 9.46320204 127.28737517 12.13574219 127.22705078 C13.15649841 127.22689972 14.17725464 127.22674866 15.22894287 127.22659302 C16.32386047 127.21627045 17.41877808 127.20594788 18.546875 127.1953125 C19.6732135 127.1924826 20.799552 127.18965271 21.96002197 127.18673706 C25.55678946 127.17554374 29.15330779 127.15044037 32.75 127.125 C35.18879849 127.11496912 37.62760088 127.10584346 40.06640625 127.09765625 C46.04435582 127.07560716 52.02216011 127.04213784 58 127 C56.55827485 119.90719022 54.53505165 113.14991556 52.25390625 106.28515625 C51.886604 105.16762466 51.51930176 104.05009308 51.14086914 102.8986969 C49.95230705 99.2852224 48.75773937 95.67377082 47.5625 92.0625 C45.92553162 87.10337561 44.29063055 82.14357154 42.65625 77.18359375 C42.25362442 75.96309326 41.85099884 74.74259277 41.43617249 73.48510742 C39.06613318 66.28712276 36.73950899 59.07754405 34.46875 51.84765625 C33.96283452 50.24535335 33.4568949 48.64305807 32.95092773 47.04077148 C32.26020741 44.85145044 31.57363271 42.66127992 30.900177 40.46658325 C30.29922575 38.50838391 29.68330334 36.55479701 29.06640625 34.6015625 C28.73584229 33.53244629 28.40527832 32.46333008 28.06469727 31.36181641 C27.71334717 30.58241699 27.36199707 29.80301758 27 29 C26.01 28.67 25.02 28.34 24 28 Z " fill="#000000" transform="translate(88,31)"/>
<path d="M0 0 C11.11165084 10.06584841 16.50392204 24.87761225 19.3125 39.25 C19.3125 41.56 19.3125 43.87 19.3125 46.25 C7.7625 46.25 -3.7875 46.25 -15.6875 46.25 C-16.739375 42.351875 -16.739375 42.351875 -17.8125 38.375 C-20.73740892 28.23241981 -23.9571091 20.04702589 -33.3828125 14.4296875 C-47.46998317 7.21896624 -67.26024685 6.54305829 -82.375 10.9375 C-88.63958046 13.37372573 -93.63295518 15.97464841 -97.125 21.875 C-99.3163263 26.88374584 -99.47856718 31.88557567 -98.6875 37.25 C-95.69233061 43.8643324 -90.1332839 47.94534631 -83.453125 50.47460938 C-71.54222266 54.21221099 -59.49022622 56.76213757 -47.26171875 59.22680664 C4.43781125 69.70580179 4.43781125 69.70580179 17.8125 88.8125 C24.67916667 100.17119357 25.86677722 113.42256212 23.81640625 126.38671875 C20.51547949 139.45988067 14.00356851 149.25016261 2.5 156.5 C0.78708169 157.44668157 -0.94274471 158.36336358 -2.6875 159.25 C-3.54472656 159.69085938 -4.40195312 160.13171875 -5.28515625 160.5859375 C-17.8566109 166.42078987 -32.89200242 168.85779179 -46.6875 169.25 C-47.36570801 169.27046387 -48.04391602 169.29092773 -48.74267578 169.31201172 C-72.68749601 169.93764835 -99.32501866 168.30048811 -118.1875 151.75 C-119.70720186 150.2699641 -121.20959589 148.7717751 -122.6875 147.25 C-123.24824219 146.70988281 -123.80898438 146.16976562 -124.38671875 145.61328125 C-134.75561501 134.80894578 -138.89406724 118.59746211 -140.6875 104.25 C-128.8075 104.25 -116.9275 104.25 -104.6875 104.25 C-103.98625 107.034375 -103.285 109.81875 -102.5625 112.6875 C-100.66762538 119.72533612 -98.64915947 125.73568044 -93.6875 131.25 C-93.18734375 131.81847656 -92.6871875 132.38695312 -92.171875 132.97265625 C-82.12258522 142.89998863 -66.42428056 142.49719057 -53.30297852 142.50097656 C-42.21030644 142.39463386 -28.69294267 141.93128337 -20.16796875 133.80078125 C-14.90206163 127.77609789 -14.2344726 123.23478108 -14.375 115.3828125 C-14.92127823 109.90637325 -17.49178622 107.47560662 -21.1875 103.6875 C-29.14491311 97.46933764 -39.69889045 95.27490802 -49.375 93.3125 C-51.75036087 92.80637822 -54.12535318 92.298524 -56.5 91.7890625 C-57.69367188 91.53543945 -58.88734375 91.28181641 -60.1171875 91.02050781 C-118.86503461 78.34215678 -118.86503461 78.34215678 -131.62890625 59.36328125 C-138.25275561 47.15305292 -139.18560323 33.57894497 -135.93359375 20.1328125 C-133.88938474 13.95741958 -130.9629866 9.11763146 -126.6875 4.25 C-126.15898438 3.59386719 -125.63046875 2.93773438 -125.0859375 2.26171875 C-116.05944361 -7.97758599 -101.65797419 -12.90428395 -88.6875 -15.75 C-87.67429687 -15.97429688 -86.66109375 -16.19859375 -85.6171875 -16.4296875 C-56.90366114 -21.57977945 -23.54163367 -18.45995944 0 0 Z " fill="#000000" transform="translate(895.6875,73.75)"/>
<path d="M0 0 C12.63781359 10.48438236 17.31718723 24.39174915 18.82335663 40.40102005 C19.49579389 50.29468858 19.2445104 60.25481177 19.20278788 70.16590381 C19.19014083 73.68522528 19.18909916 77.20455152 19.18673706 80.72389221 C19.1805628 87.36391872 19.16420791 94.00387804 19.14403808 100.64387518 C19.12155155 108.21359791 19.11065384 115.78332414 19.10064721 123.35307205 C19.07983724 138.90209338 19.04321284 154.45102234 19 170 C6.79 170 -5.42 170 -18 170 C-18.02187378 164.36103638 -18.02187378 164.36103638 -18.04418945 158.6081543 C-18.09459775 146.16697001 -18.16105547 133.72591447 -18.23571491 121.28485394 C-18.28057718 113.74419749 -18.32001357 106.20358727 -18.34643555 98.6628418 C-18.3694935 92.0861816 -18.40297766 85.50966886 -18.44870156 78.93312579 C-18.47252936 75.45463434 -18.49132617 71.97628796 -18.49761391 68.4977169 C-18.50484935 64.60337815 -18.53537448 60.70940109 -18.56762695 56.81518555 C-18.56619186 55.67654053 -18.56475677 54.53789551 -18.5632782 53.36474609 C-18.67342302 43.91843405 -19.78007566 34.500497 -26 27 C-34.85342665 18.62513696 -47.54503402 17.52783055 -59.2578125 17.81640625 C-72.3463682 18.69270556 -84.96421632 21.94895973 -94 32 C-106.11437587 46.93434935 -109.0787453 66.83893346 -109.20532227 85.53710938 C-109.21522186 86.45511322 -109.22512146 87.37311707 -109.23532104 88.31893921 C-109.26669067 91.32718402 -109.29159556 94.33544457 -109.31640625 97.34375 C-109.33699701 99.43982331 -109.35799402 101.53589266 -109.37937927 103.63195801 C-109.43438084 109.12932112 -109.48388614 114.62672033 -109.53222656 120.12414551 C-109.58260231 125.74165024 -109.6382042 131.35910302 -109.69335938 136.9765625 C-109.80067264 147.98433212 -109.90169301 158.99214626 -110 170 C-122.21 170 -134.42 170 -147 170 C-147 111.59 -147 53.18 -147 -7 C-136.44 -7 -125.88 -7 -115 -7 C-114.36395565 -1.91164521 -113.85605847 2.76647966 -113.71875 7.8359375 C-113.66267578 9.67865234 -113.66267578 9.67865234 -113.60546875 11.55859375 C-113.53450903 14.12628428 -113.46420823 16.69399309 -113.39453125 19.26171875 C-113.33845703 21.09283203 -113.33845703 21.09283203 -113.28125 22.9609375 C-113.25095703 24.07259277 -113.22066406 25.18424805 -113.18945312 26.32958984 C-113.17316743 28.97266183 -113.17316743 28.97266183 -112 31 C-110.68 31 -109.36 31 -108 31 C-107.5153125 30.03320312 -107.030625 29.06640625 -106.53125 28.0703125 C-97.11817018 9.63112184 -86.05885288 -1.34412364 -66.078125 -7.96875 C-45.62831525 -13.46272874 -17.73753565 -12.72411648 0 0 Z " fill="#000000" transform="translate(377,70)"/>
<path d="M0 0 C47.52 0 95.04 0 144 0 C144 28.61531191 144 28.61531191 133.9921875 38.74609375 C129.99827122 42.93825527 126.49742532 47.39156354 123 52 C121.83530676 53.50153281 120.66863704 55.00153459 119.5 56.5 C118.63375 57.61375 118.63375 57.61375 117.75 58.75 C116 61 114.25 63.25 112.5 65.5 C111.9222583 66.24282227 111.3445166 66.98564453 110.74926758 67.75097656 C109.58508741 69.24775643 108.4208623 70.74450134 107.2565918 72.24121094 C104.30150827 76.04019058 101.34725986 79.83981465 98.39453125 83.640625 C92.67402561 91.00266704 86.94297851 98.35572926 81.17626953 105.68164062 C76.30986415 111.86849817 71.48100242 118.0844473 66.65234375 124.30078125 C64.12748055 127.55114052 61.59836531 130.79813409 59.06640625 134.04296875 C58.42743408 134.86249023 57.78846191 135.68201172 57.13012695 136.52636719 C55.90160243 138.10186495 54.67230595 139.67676115 53.44213867 141.25097656 C52.88888916 141.96092773 52.33563965 142.67087891 51.765625 143.40234375 C51.27868164 144.02616943 50.79173828 144.64999512 50.29003906 145.29272461 C49.13594686 146.82008396 48.06189314 148.40716029 47 150 C47.95942505 150.00586624 48.9188501 150.01173248 49.90734863 150.01777649 C58.97016374 150.0751083 68.03274132 150.14792427 77.09531403 150.23571491 C81.75395461 150.2803513 86.4125091 150.31962213 91.07128906 150.34643555 C95.57130092 150.37253585 100.07098027 150.41298547 104.57078552 150.46318626 C106.28344064 150.4798096 107.99615322 150.49135202 109.70887756 150.49761391 C112.11681585 150.50730467 114.52391212 150.53542165 116.93164062 150.56762695 C117.98253372 150.56547432 117.98253372 150.56547432 119.05465698 150.5632782 C126.58529175 150.7047738 133.14805412 153.29300005 139 158 C145.05853448 164.76874546 147 169.75408435 147 179 C97.17 179 47.34 179 -4 179 C-4 152.47331081 -4 152.47331081 5.48828125 142.5234375 C6.08721191 141.93272461 6.68614258 141.34201172 7.30322266 140.73339844 C9.82308068 138.15915499 11.92852015 135.33219803 14.0625 132.4375 C18.12280668 127.11573881 22.27552771 121.87721646 26.46679688 116.65820312 C29.85565087 112.43623778 33.22090059 108.19696363 36.5625 103.9375 C37.01302734 103.36322266 37.46355469 102.78894531 37.92773438 102.19726562 C39.28567921 100.46525277 40.64297141 98.73273081 42 97 C48.13229282 89.1699419 54.29555658 81.36730552 60.51708984 73.60791016 C66.19866781 66.5155815 71.80500521 59.36457043 77.40283203 52.20605469 C78.34874212 50.99646603 79.29511612 49.78724002 80.24194336 48.57836914 C81.11489821 47.46379148 81.98693147 46.34849081 82.85766602 45.23217773 C87.15449317 39.74792513 91.5842969 34.39697046 96 29 C64.32 28.67 32.64 28.34 0 28 C0 18.76 0 9.52 0 0 Z " fill="#000000" transform="translate(417,60)"/>
<path d="M0 0 C0 14.85 0 29.7 0 45 C11.88 45 23.76 45 36 45 C36 54.24 36 63.48 36 73 C24.12 73 12.24 73 0 73 C0.04038124 86.64816372 0.0975366 100.29597794 0.18390274 113.94392967 C0.22334584 120.28180322 0.25555008 126.61953847 0.27099609 132.95751953 C0.28618319 139.07850793 0.32066611 145.19911606 0.36830902 151.31993484 C0.38310148 153.65056674 0.39103978 155.98125293 0.39188385 158.31193161 C0.39426159 161.58645521 0.42140782 164.8599348 0.45410156 168.13427734 C0.4490712 169.08950287 0.44404083 170.04472839 0.43885803 171.02890015 C0.54879884 178.18543815 1.8225251 185.28376175 6.60528946 190.87747765 C12.56146884 195.97801094 16.58044831 195.59674139 25 197 C25 206.24 25 215.48 25 225 C6.35019809 225.42385913 -8.73178804 223.62122896 -22.93359375 210.2578125 C-31.28057182 201.13767389 -37.13481642 188.80730585 -37.12025452 176.29862976 C-37.12162918 175.3830278 -37.12300385 174.46742584 -37.12442017 173.52407837 C-37.12082489 172.53217499 -37.11722961 171.54027161 -37.11352539 170.51831055 C-37.11367142 169.46419479 -37.11381744 168.41007904 -37.1139679 167.32402039 C-37.11327205 163.8448988 -37.10549493 160.36583097 -37.09765625 156.88671875 C-37.09579091 154.47247853 -37.09436755 152.05823793 -37.09336853 149.64399719 C-37.08955251 143.29331414 -37.07973001 136.94265399 -37.06866455 130.59197998 C-37.05843078 124.11015126 -37.05386669 117.62831884 -37.04882812 111.14648438 C-37.03810694 98.4309779 -37.02051752 85.71549444 -37 73 C-45.58 73 -54.16 73 -63 73 C-63 63.76 -63 54.52 -63 45 C-59.7 44.34 -56.4 43.68 -53 43 C-46.18204517 39.84740807 -41.73094238 35.35609854 -38.94140625 28.3359375 C-37.82696499 24.38683861 -37.55212249 20.70619741 -37.375 16.625 C-37.33632813 15.88894531 -37.29765625 15.15289062 -37.2578125 14.39453125 C-37.16442002 12.59672594 -37.0811629 10.79839892 -37 9 C-29.21467136 6.45698207 -21.37563259 4.25758399 -13.4375 2.25 C-12.56899414 2.02739502 -11.70048828 1.80479004 -10.80566406 1.57543945 C-9.98163086 1.37007568 -9.15759766 1.16471191 -8.30859375 0.953125 C-7.20729126 0.67710449 -7.20729126 0.67710449 -6.08374023 0.39550781 C-4 0 -4 0 0 0 Z " fill="#000000" transform="translate(988,14)"/>
</svg>
